# xmcd CD database file
#
# Track frame offsets:
#	150
#	15327
#	35715
#	61508
#	76164
#	102548
#	117731
#	129606
#	153142
#	175588
#	187313
#	205268
#	219845
#	240059
#	254285
#	273713
#	292762
#	304031
#	326450
#	339880
#
# Disc length: 4724 seconds
#
# Revision: 1
# Processed by: cddbd v1.5.2PL0 Copyright (c) Steve Scherf et al.
# Submitted via: CDex 1.70beta2
#
DISCID=0b127214
DTITLE=Jazz in Paris - Disc 4 - La Vie en Rose
DYEAR=1900
DGENRE=Jazz
TTITLE0=Louis Armstrong and the All-Stars - When it's Sleepy Time Down South
TTITLE1=Louis Armstrong and the All-Stars - A Kiss to Build a Dream on
TTITLE2=Art Blakey's Jazz Messengers - Blues March
TTITLE3=Stan Getz Quartet - Manha de Carnaval
TTITLE4=Stan Getz Quartet - On Grenn Dolphin Street
TTITLE5=Jazz at the Philharmonic - Clo's Blues
TTITLE6=Django Reinhardt and ses Rythmes - Manoir de mes rêves
TTITLE7=Michel Legrand trio - April in Paris
TTITLE8=Stéphane Grappelli Quartet - Django
TTITLE9=Don Byas Quintet - Night and Day
TTITLE10=Harold Nicholas and His Orchestra - On the Sunny Side of the Street
TTITLE11=Sammy Price and Doc Cheatman - I got Rythm
TTITLE12=Willie "The Lion" Smith - Honeysuckle Rose
TTITLE13=Michel Legrand Trio - La Vie en Rose
TTITLE14=Barney Wilen Quartet - Vamp
TTITLE15=Ronnell Bright Trio - Things Ain't What They Used to Be
TTITLE16=Sidney bechet and His Feetwarmers - After You've Gone
TTITLE17=Stéphane Grappelli and Stuff Smith - How High The Moon
TTITLE18=Sonny Criss Quartet - We'll Be Together Again
TTITLE19=Don Byas Quintet - Stormy Weather
EXTD=
EXTT0=
EXTT1=
EXTT2=
EXTT3=
EXTT4=
EXTT5=
EXTT6=
EXTT7=
EXTT8=
EXTT9=
EXTT10=
EXTT11=
EXTT12=
EXTT13=
EXTT14=
EXTT15=
EXTT16=
EXTT17=
EXTT18=
EXTT19=
PLAYORDER=
